<svg xmlns="http://www.w3.org/2000/svg" width="100" height="100" viewBox="0 0 100 100">
  <g>
    <path d="M27.143 94.794C14.933 94.794 5 84.862 5 72.652V35.498a6.43 6.43 0 0 1 12.856 0v37.157c0 5.12 4.166 9.287 9.287 9.287s9.287-4.165 9.287-9.286a9.28 9.28 0 0 0-5.068-8.28 6.43 6.43 0 0 1-2.786-8.654 6.433 6.433 0 0 1 8.654-2.79c7.433 3.815 12.056 11.37 12.056 19.72 0 12.212-9.932 22.144-22.143 22.144z"/>
    <path d="M65.715 79.083c-3.55 0-6.43-2.88-6.43-6.43 0-15.46-11.01-28.753-26.178-31.595a6.433 6.433 0 0 1-5.14-7.5 6.435 6.435 0 0 1 7.507-5.136c21.246 3.98 36.668 22.584 36.668 44.23a6.43 6.43 0 0 1-6.427 6.43z"/>
    <path d="M88.572 79.083c-3.55 0-6.43-2.88-6.43-6.43 0-27.94-20.893-51.425-48.596-54.633a6.43 6.43 0 0 1 1.48-12.773C69.216 9.207 95 38.185 95 72.652a6.43 6.43 0 0 1-6.428 6.43z"/>
  </g>
</svg>
