<svg xmlns="http://www.w3.org/2000/svg" width="99.08" height="100.002" viewBox="0 0 99.08 100.002">
    <g>
        <path d="M49.54 100.002c27.343.014 49.517-22.378 49.54-49.98C99.057 22.382 76.883-.01 49.54 0 22.187-.01.017 22.38 0 50.023c.018 27.6 22.188 49.993 49.54 49.98zm0-88.482c21.042 0 38.1 17.23 38.075 38.506.023 21.232-17.033 38.462-38.076 38.453-21.05.01-38.11-17.227-38.134-38.46.024-21.27 17.084-38.5 38.13-38.5z"/>
        <path d="M57.516 70.865c-.484 0-.88-.566-.88-1.263V40.036H38.168v3.795h3.34a.88.88 0 0 1 .874.884v25.273a.88.88 0 0 1-.873.88h-3.34v3.923h22.945v-3.923h-3.6zm-8.004-49.23a7.924 7.924 0 0 1 0 15.844 7.923 7.923 0 0 1 0-15.847z"/>
    </g>
</svg>
