<svg width="80" height="80" viewBox="0 0 80 80" xmlns="http://www.w3.org/2000/svg">
    <path d="M75.078 51.037c-1.183-.92-4.85-3.4-11.2-7.655-1.157-.774-2.06-1.38-2.462-1.653-1.89-1.29-3.9-1.945-5.977-1.945-1.58 0-5.24.45-8.02 4.232a298.956 298.956 0 0 1-5.585-5.57l-.066-.068-.07-.068a311.435 311.435 0 0 1-5.568-5.585c2.508-1.84 3.536-4.05 3.95-5.708.398-1.6.713-4.8-1.66-8.287-.272-.397-.874-1.297-1.645-2.448-4.26-6.358-6.743-10.03-7.666-11.216C26.405 1.582 23.248.85 21.076.85c-1.774 0-3.2.483-4.24.836l-.34.116c-2.524.84-5.118 1.917-9.02 5.82-7.534 7.537-8.746 16.4-3.82 27.9 4.715 11 15.984 22.45 17.254 23.72 1.27 1.268 12.72 12.537 23.72 17.252 4.643 1.99 8.753 2.96 12.56 2.96 5.76 0 10.774-2.218 15.336-6.778 3.9-3.9 4.98-6.493 5.822-9.023l.113-.34c.643-1.888 2.596-7.634-3.385-12.278zm-4.317 10.09c-.53 1.59-1.06 3.065-3.886 5.894-2.622 2.625-5.515 4.438-9.68 4.438-2.573 0-5.632-.692-9.412-2.312-9.9-4.243-21.213-15.558-21.213-15.558S15.252 42.27 11.01 32.372c-4.242-9.9-2.12-14.848 2.122-19.092 2.828-2.828 4.303-3.36 5.895-3.89.9-.3 1.518-.54 2.05-.54.587 0 1.072.294 1.72 1.13 1.228 1.578 7.89 11.604 9.015 13.258 1.003 1.473.653 2.547-1.118 3.477-2.474 1.295-6.497 3.898-5.54 5.656 1.12 2.065 10.96 11.67 10.96 11.67S45.718 53.88 47.78 55c.18.1.37.145.567.145 1.71 0 3.926-3.467 5.09-5.686.587-1.124 1.232-1.676 2.002-1.676.442 0 .93.186 1.47.555 1.654 1.126 11.68 7.787 13.26 9.015 1.59 1.235 1.22 1.873.59 3.77z" fill-rule="evenodd"/>
</svg>
