<svg width="33" height="30" viewBox="0 0 33 30" xmlns="http://www.w3.org/2000/svg">
    <path fill="#333" fill-rule="evenodd" d="M32.5 21.024V9.056c0-.08 0-.16-.04-.24v-.08c-.038-.08-.038-.12-.076-.2 0 0 0-.04-.038-.04a.696.696 0 0 0-.153-.198l-.04-.04c-.037-.04-.113-.08-.152-.12l-.036-.04L16.67.12a.8.8 0 0 0-.84 0L.534 8.098l-.038.04a.535.535 0 0 0-.153.12l-.038.04c-.038.04-.115.12-.153.2 0 0 0 .04-.038.04-.04.04-.04.12-.077.2v.078C0 8.896 0 8.976 0 9.056v11.968c0 .558.42.997.956.997.535 0 .956-.437.956-.995V10.652l13.38 6.98v11.37c0 .56.422.998.957.998.534 0 .954-.44.954-.997v-11.37l13.382-6.98v10.37c0 .56.42.998.956.998.535 0 .956-.437.956-.995zm-16.25-5.106L3.096 9.056 16.25 2.194 29.4 9.056l-13.15 6.862z" />
</svg>
