<svg xmlns="http://www.w3.org/2000/svg" width="33" height="30" viewBox="0, 0, 33, 30"><path d="M31.911 21.199V9.465c0-.078 0-.157-.038-.235v-.078c-.037-.078-.037-.117-.075-.196 0 0 0-.039-.037-.039a.677.677 0 0 0-.151-.195l-.037-.039c-.038-.04-.113-.079-.15-.118l-.038-.039L16.368.117a.786.786 0 0 0-.825 0L.526 8.526l-.038.039a.498.498 0 0 0-.15.118L.3 8.722c-.037.039-.112.117-.15.195 0 0 0 .039-.037.039-.038.04-.038.118-.076.196v.078C0 9.308 0 9.387 0 9.465v11.734c0 .548.413.978.938.978.526 0 .939-.43.939-.978v-10.17l13.14 7.316v10.677c0 .548.413.978.938.978.526 0 .939-.43.939-.978V18.346l13.139-7.317v10.17c0 .548.413.978.939.978s.939-.43.939-.978zm-15.956-4.535L3.041 9.465l12.914-7.314L28.87 9.465l-12.915 7.199z" fill="#333"/></svg>