<svg width="216" height="30" viewBox="0 0 216 30" xmlns="http://www.w3.org/2000/svg"><title>hr-table</title><g fill="none" fill-rule="evenodd"><path d="M124.5 21.024V9.056c0-.08 0-.16-.04-.24v-.08c-.038-.08-.038-.12-.076-.2 0 0 0-.04-.038-.04a.696.696 0 0 0-.153-.198l-.04-.04c-.037-.04-.113-.08-.152-.12l-.037-.04L108.67.12a.8.8 0 0 0-.84 0L92.534 8.098l-.038.04a.53.53 0 0 0-.153.12l-.038.04c-.038.04-.115.12-.153.2 0 0 0 .04-.038.04-.04.04-.04.12-.077.2v.078c-.038.08-.038.16-.038.24v11.968c0 .558.42.997.956.997.535 0 .956-.438.956-.996V10.652l13.38 6.98v11.37c0 .56.422.998.957.998.535 0 .955-.44.955-.997v-11.37l13.382-6.98v10.37c0 .56.42.998.956.998.535 0 .956-.438.956-.996zm-16.25-5.106L95.096 9.056l13.152-6.862L121.4 9.056l-13.153 6.862z" fill="#555"/><path d="M1.5 14h80M134.5 14h80" stroke="#555" stroke-width="2" stroke-linecap="round"/></g></svg>