<?xml version="1.0" encoding="UTF-8" standalone="no"?>
<svg width="61px" height="40px" viewBox="0 0 61 40" version="1.1" xmlns="http://www.w3.org/2000/svg" xmlns:xlink="http://www.w3.org/1999/xlink" xmlns:sketch="http://www.bohemiancoding.com/sketch/ns">
    <!-- Generator: Sketch 3.3.2 (12043) - http://www.bohemiancoding.com/sketch -->
    <title>Path 8 + Path 9 + Oval 1</title>
    <desc>Created with Sketch.</desc>
    <defs></defs>
    <g id="Page-1" stroke="none" stroke-width="1" fill="none" fill-rule="evenodd" sketch:type="MSPage">
        <g id="Path-8-+-Path-9-+-Oval-1" sketch:type="MSLayerGroup" transform="translate(0.000000, 2.000000)">
            <path d="M32.5,0 L4,10.5 L32.5,20 L59,10 L32.5,0 Z" id="Path-8" stroke="#4A4A4A" stroke-width="4" stroke-linecap="round" stroke-linejoin="round" sketch:type="MSShapeGroup"></path>
            <path d="M15.7340426,15 L12,32.5 C12,32.5 18.6382979,27 31.9148936,27 C45.1914894,27 51,31.5 51,31.5 L47.2659574,13" id="Path-9" stroke="#4A4A4A" stroke-width="4" sketch:type="MSShapeGroup"></path>
            <path d="M4.45454545,19.3722801 C5.56677454,19.8446807 6.36363636,21.1193372 6.36363636,22.6176471 C6.36363636,23.9326435 5.74983348,25.0753654 4.84773466,25.6546573 L4.84773466,25.6546573 L7,36 L0,36 L2.15226534,25.6546573 C1.25016652,25.0753654 0.636363636,23.9326435 0.636363636,22.6176471 C0.636363636,21.1193372 1.43322546,19.8446807 2.54545455,19.3722801 L2.54545455,10 L4.45454545,10 L4.45454545,19.3722801 Z" id="Oval-1" fill="#4A4A4A" sketch:type="MSShapeGroup"></path>
        </g>
    </g>
</svg>