<svg width="403" height="708" viewBox="0 0 403 708" xmlns="http://www.w3.org/2000/svg"><title>tesselate</title><g stroke="#FFF" stroke-width="25" fill="none" fill-rule="evenodd"><path d="M201.497 462.835L.803 578.707-200 462.835V230.98L.803 115l200.694 115.98v231.855zM399.997 113.835L200.303 229.707-.5 113.835V-118.02L200.303-234l200.694 115.98-1 231.855z" fill="#FCFCFC"/><path d="M.5 113.835l-200.695 115.872-200.802-115.872V-118.02L-200.195-234 .5-118.02v231.855z" fill-opacity=".01" fill="#000"/><path d="M602.497 462.835L401.803 578.707 201 462.835V230.98L401.803 115l200.694 115.98v231.855z" fill="#FCFCFC"/><path d="M400.497 809.835L199.803 925.707-1 809.835V577.98L199.803 462l200.694 115.98v231.855z" fill="#FCFCFC"/><path d="M.497 809.835l-200.694 115.872L-401 809.835V577.98L-200.197 462 .497 577.98v231.855z" fill-opacity=".01" fill="#000"/></g></svg>